<?xml version="1.0" encoding="utf-8"?>
<!-- Generator: Adobe Illustrator 19.0.0, SVG Export Plug-In . SVG Version: 6.00 Build 0)  -->
<svg version="1.1" id="Capa_1" xmlns="http://www.w3.org/2000/svg" xmlns:xlink="http://www.w3.org/1999/xlink" x="0px" y="0px"
	 viewBox="0 0 549 364" style="enable-background:new 0 0 549 364;" xml:space="preserve">
<style type="text/css">
	.st0{fill:#00CCFF;}
	.st1{fill:#0000FF;}
	.st2{fill-rule:evenodd;clip-rule:evenodd;fill:#FFCC00;}
	.st3{fill:none;stroke:#FFCC00;stroke-width:0.7087;stroke-miterlimit:22.9256;}
	.st4{fill-rule:evenodd;clip-rule:evenodd;fill:#6699FF;}
	.st5{fill-rule:evenodd;clip-rule:evenodd;fill:#00FFFF;}
	.st6{fill:none;stroke:#00FFFF;stroke-width:0.2835;stroke-miterlimit:22.9256;}
</style>
<path class="st0" d="M533.4,229.1v-72.6h9.3v72.6H533.4z M448.6,230.1v-75.4l57.2,58v-55.1h8.9V233l-57.2-57.4v54.5H448.6z
	 M424.7,230.1v-72.6h9.3v72.6H424.7z M374.1,164.8v24.3h7.1c7.3,0,12.1-0.9,14.6-2.6c2.5-1.7,3.7-4.8,3.7-9.1c0-4.7-1.3-7.9-3.8-9.8
	c-2.5-1.9-7.4-2.8-14.5-2.8H374.1z M365,230.1v-72.6h18.4c5.2,0,9.1,0.3,11.5,0.8c2.4,0.6,4.6,1.5,6.5,2.8c2.3,1.7,4.1,3.9,5.4,6.8
	c1.3,2.8,1.9,6,1.9,9.4c0,5.9-1.8,10.5-5.4,13.6c-3.6,3.1-8.8,4.6-15.7,4.6h-1.7l29.9,34.6h-11.8l-28.5-34.6h-1.3v34.6H365z
	 M350.9,194c0,5.2-1,10.1-3.1,14.7c-2.1,4.6-5.1,8.7-9,12.2c-4,3.6-8.5,6.3-13.6,8.3c-5.2,1.9-10.5,2.9-16,2.9
	c-5.5,0-10.8-1-15.9-2.9c-5.1-1.9-9.6-4.7-13.6-8.3c-4-3.6-7-7.7-9.1-12.3c-2.1-4.6-3.1-9.5-3.1-14.6c0-5.2,1-10.1,3.1-14.7
	c2.1-4.6,5.1-8.7,9.1-12.3c3.9-3.5,8.4-6.3,13.6-8.2c5.1-1.9,10.4-2.9,16-2.9c5.6,0,10.9,1,16.1,2.9c5.1,1.9,9.7,4.6,13.6,8.2
	c4,3.6,7,7.7,9,12.3C349.9,183.8,350.9,188.7,350.9,194z M309.1,223.9c4.3,0,8.3-0.7,12.2-2.3c3.9-1.5,7.3-3.7,10.4-6.6
	c3.1-2.8,5.4-6.1,7-9.7c1.6-3.6,2.4-7.4,2.4-11.5c0-4.1-0.8-7.9-2.4-11.6c-1.6-3.7-4-6.9-7-9.7c-3.1-2.8-6.5-5-10.4-6.5
	c-3.8-1.5-7.9-2.2-12.2-2.2c-4.3,0-8.5,0.7-12.3,2.2c-3.9,1.5-7.3,3.7-10.3,6.5c-3.1,2.9-5.4,6.1-7,9.8c-1.6,3.6-2.4,7.5-2.4,11.6
	c0,4,0.8,7.8,2.4,11.4c1.6,3.6,3.9,6.8,7,9.7c3.1,2.9,6.6,5.1,10.4,6.6C300.7,223.2,304.8,223.9,309.1,223.9z M235.2,230.1v-64.4
	h-22.1v-8.2h53.5v8.2h-22v64.4H235.2z M140.1,230.1v-75.4l57.2,58v-55.1h8.9V233l-57.2-57.4v54.5H140.1z M93.2,154.7l35.6,75.4
	h-10.1l-10.1-22.2H78l-10.2,22.2H57.8L93.2,154.7z M93.2,173.8l-12.4,26.7h24.9L93.2,173.8z M40.7,189.8c5.1,2,8.9,4.7,11.5,8
	c2.6,3.3,3.9,7.3,3.9,11.8c0,6.7-2.3,12-6.9,16.1c-4.6,4.1-10.6,6.1-18.2,6.1c-6.2,0-11.3-1.5-15.5-4.4c-4.2-2.9-7-7.1-8.4-12.5
	l8.4-3.9c1.1,4.4,3,7.7,5.6,10c2.6,2.3,5.9,3.4,9.8,3.4c4.7,0,8.4-1.3,11.3-3.7c2.9-2.5,4.3-5.8,4.3-9.7c0-3.2-1-6.1-3-8.5
	c-2-2.4-5-4.4-9.1-6.1l-9.5-3.8c-5.2-2-9.1-4.6-11.6-7.8c-2.6-3.2-3.8-7-3.8-11.4c0-5.2,2.1-9.4,6.2-12.8c4.1-3.4,9.4-5.1,15.8-5.1
	c4.7,0,8.8,0.9,12.2,2.8c3.4,1.9,6.1,4.6,8,8.2l-7.7,4.6c-1.7-2.8-3.7-4.9-5.9-6.3c-2.2-1.4-4.6-2.1-7.4-2.1c-3.5,0-6.4,1-8.6,3
	c-2.2,2-3.3,4.5-3.3,7.6c0,2.6,0.9,4.8,2.6,6.7c1.7,1.9,4.4,3.6,7.9,5L40.7,189.8z"/>
<path class="st1" d="M514.2,292.9c-1-1.1-2-1.8-3.1-2.4c-1.1-0.5-2.3-0.8-3.6-0.8c-1.1,0-2.1,0.2-3.1,0.7c-1,0.4-1.9,1-2.6,1.8
	c-0.8,0.8-1.3,1.7-1.7,2.7c-0.4,1-0.6,2.1-0.6,3.3c0,0.9,0.1,1.8,0.3,2.6c0.2,0.8,0.6,1.5,1,2.2c0.8,1.2,1.8,2.1,3,2.7
	c1.2,0.6,2.4,0.9,3.8,0.9c1.3,0,2.5-0.3,3.6-0.8c1.1-0.5,2.1-1.3,3-2.4v3.2c-1,0.7-2.1,1.3-3.2,1.7c-1.1,0.4-2.3,0.6-3.5,0.6
	c-1.1,0-2.1-0.2-3.1-0.5c-1-0.3-1.9-0.8-2.8-1.4c-1.5-1-2.6-2.3-3.3-3.8c-0.8-1.5-1.2-3.2-1.2-5c0-1.6,0.3-3,0.8-4.3
	c0.5-1.3,1.3-2.5,2.4-3.5c1-1,2.1-1.8,3.4-2.3c1.2-0.5,2.6-0.7,4.1-0.7c1.2,0,2.3,0.2,3.4,0.5c1.1,0.4,2.2,0.9,3.2,1.7V292.9z
	 M482.5,308.4V288h2.4v20.4H482.5z M467.1,297.1c1.3,0.6,2.3,1.3,2.9,2.3c0.7,0.9,1,2.1,1,3.3c0,1.9-0.6,3.4-1.8,4.5
	c-1.2,1.1-2.7,1.7-4.7,1.7c-1.6,0-2.9-0.4-4-1.2c-1.1-0.8-1.8-2-2.2-3.5l2.2-1.1c0.3,1.2,0.8,2.2,1.4,2.8c0.7,0.6,1.5,1,2.5,1
	c1.2,0,2.2-0.4,2.9-1.1c0.7-0.7,1.1-1.6,1.1-2.7c0-0.9-0.3-1.7-0.8-2.4c-0.5-0.7-1.3-1.2-2.3-1.7l-2.4-1.1c-1.3-0.6-2.3-1.3-3-2.2
	c-0.7-0.9-1-2-1-3.2c0-1.5,0.5-2.7,1.6-3.6c1.1-0.9,2.4-1.4,4-1.4c1.2,0,2.2,0.3,3.1,0.8c0.9,0.5,1.6,1.3,2.1,2.3l-2,1.3
	c-0.4-0.8-0.9-1.4-1.5-1.8c-0.6-0.4-1.2-0.6-1.9-0.6c-0.9,0-1.6,0.3-2.2,0.8c-0.6,0.6-0.9,1.3-0.9,2.1c0,0.7,0.2,1.4,0.7,1.9
	c0.4,0.5,1.1,1,2,1.4L467.1,297.1z M435.3,288h2.4v12.7c0,2.1,0.4,3.6,1.3,4.6c0.9,1,2.2,1.5,4.1,1.5c1.8,0,3.2-0.5,4.1-1.5
	c0.9-1,1.3-2.5,1.3-4.6V288h2.4v12.7c0,2.8-0.6,4.8-1.9,6.2c-1.3,1.4-3.2,2.1-5.8,2.1c-2.6,0-4.5-0.7-5.8-2.1
	c-1.3-1.4-1.9-3.4-1.9-6.2V288z M413.3,309.2l-6.2-14.7l-2.5,13.9h-2.3l4.1-21.2l7,16.9l7-16.9l4.1,21.2H422l-2.5-13.9L413.3,309.2z
	 M377.3,308.4l-1.9-2.4c-0.9,0.9-1.8,1.6-2.8,2.1c-1,0.5-2.1,0.7-3.2,0.7c-1.8,0-3.2-0.5-4.3-1.6c-1.1-1.1-1.6-2.5-1.6-4.2
	c0-1.2,0.4-2.3,1.1-3.4c0.8-1,1.9-2,3.4-2.9l-0.8-0.9c-0.4-0.5-0.8-1.1-1-1.6c-0.2-0.5-0.3-1.1-0.3-1.8c0-1.3,0.4-2.3,1.3-3.1
	c0.8-0.8,2-1.2,3.3-1.2c1.4,0,2.5,0.4,3.3,1.2c0.8,0.8,1.2,1.8,1.2,3.1c0,1-0.3,1.9-0.9,2.7c-0.6,0.8-1.5,1.6-2.8,2.4l4.4,5.4
	c0.4-0.4,0.7-0.9,1.1-1.4c0.4-0.5,0.8-1.1,1.2-1.8l1.5,1.6c-0.4,0.6-0.8,1.2-1.2,1.7c-0.4,0.5-0.9,1-1.3,1.5l3.2,3.9H377.3z
	 M370,295.9l0.9-0.5c0.6-0.4,1.1-0.8,1.4-1.3c0.3-0.5,0.5-1,0.5-1.6c0-0.7-0.2-1.3-0.6-1.7c-0.4-0.4-1-0.6-1.7-0.6
	c-0.7,0-1.3,0.2-1.7,0.7c-0.4,0.4-0.7,1-0.7,1.7c0,0.3,0.1,0.7,0.2,1c0.1,0.3,0.3,0.6,0.5,0.9L370,295.9z M374,304.4l-4.8-6
	l-0.6,0.4c-1.1,0.8-1.8,1.5-2.3,2.1c-0.4,0.6-0.6,1.3-0.6,2.1c0,1.1,0.3,2,1,2.7c0.7,0.7,1.6,1.1,2.6,1.1c0.7,0,1.5-0.2,2.2-0.6
	C372.4,305.8,373.2,305.2,374,304.4z M327.8,308.4V288h10.5v2.2h-8.2v5.9h8.2v2.3h-8.2v7.8h8.2v2.3H327.8z M308.3,297.9h8.3v0.7
	c0,3.2-0.9,5.8-2.7,7.6c-1.8,1.9-4.2,2.8-7.3,2.8c-0.9,0-1.8-0.1-2.7-0.3c-0.9-0.2-1.6-0.5-2.4-0.9c-1.6-0.9-2.9-2.2-3.8-3.8
	c-0.9-1.6-1.3-3.5-1.3-5.5c0-1.7,0.3-3.2,0.8-4.6c0.5-1.4,1.3-2.6,2.4-3.6c0.9-0.9,1.9-1.5,3.1-2c1.2-0.4,2.5-0.7,4-0.7
	c1.9,0,3.6,0.4,5,1.1c1.4,0.7,2.6,1.8,3.5,3.2l-2,1.6c-0.7-1.2-1.6-2.2-2.7-2.8c-1.1-0.6-2.3-0.9-3.7-0.9c-2.3,0-4.2,0.8-5.7,2.4
	c-1.5,1.6-2.2,3.7-2.2,6.3c0,2.4,0.7,4.4,2.2,6c1.5,1.6,3.3,2.3,5.6,2.3c2,0,3.7-0.6,5-1.9c1.3-1.2,2.1-2.9,2.2-4.9h-5.7V297.9z
	 M269.1,308.4v-21.2l14.6,16.3V288h2.3v21.2l-14.6-16.2v15.4H269.1z M244.2,288h2.4v12.7c0,2.1,0.4,3.6,1.3,4.6
	c0.9,1,2.2,1.5,4.1,1.5c1.8,0,3.2-0.5,4.1-1.5c0.9-1,1.3-2.5,1.3-4.6V288h2.4v12.7c0,2.8-0.6,4.8-1.9,6.2c-1.3,1.4-3.2,2.1-5.8,2.1
	c-2.6,0-4.5-0.7-5.8-2.1c-1.3-1.4-1.9-3.4-1.9-6.2V288z M235,298.3c0,1.5-0.3,2.8-0.8,4.1c-0.5,1.3-1.3,2.4-2.3,3.5
	c-1,1-2.2,1.8-3.5,2.3c-1.3,0.5-2.7,0.8-4.1,0.8c-1.4,0-2.8-0.3-4.1-0.8c-1.3-0.5-2.5-1.3-3.5-2.3c-1-1-1.8-2.2-2.3-3.5
	c-0.5-1.3-0.8-2.7-0.8-4.1c0-1.5,0.3-2.8,0.8-4.1c0.5-1.3,1.3-2.5,2.3-3.5c1-1,2.2-1.8,3.5-2.3c1.3-0.5,2.7-0.8,4.1-0.8
	c1.4,0,2.8,0.3,4.1,0.8c1.3,0.5,2.5,1.3,3.5,2.3c1,1,1.8,2.2,2.3,3.5C234.7,295.4,235,296.8,235,298.3z M224.3,306.7
	c1.1,0,2.1-0.2,3.1-0.6c1-0.4,1.9-1,2.7-1.9c0.8-0.8,1.4-1.7,1.8-2.7c0.4-1,0.6-2.1,0.6-3.2c0-1.1-0.2-2.2-0.6-3.3
	c-0.4-1-1-1.9-1.8-2.7c-0.8-0.8-1.7-1.4-2.7-1.8c-1-0.4-2-0.6-3.1-0.6c-1.1,0-2.2,0.2-3.2,0.6c-1,0.4-1.9,1-2.6,1.8
	c-0.8,0.8-1.4,1.7-1.8,2.7c-0.4,1-0.6,2.1-0.6,3.3c0,1.1,0.2,2.2,0.6,3.2c0.4,1,1,1.9,1.8,2.7c0.8,0.8,1.7,1.4,2.7,1.9
	C222.1,306.5,223.2,306.7,224.3,306.7z M196,308.4V288h2.4v18.1h7.6v2.3H196z M162,308.4V288h2.4v18.1h7.6v2.3H162z M139.2,308.4
	V288h10.5v2.2h-8.2v5.9h8.2v2.3h-8.2v7.8h8.2v2.3H139.2z M121.4,308.4v-18.1h-5.6V288h13.7v2.3h-5.6v18.1H121.4z M109.1,298.3
	c0,1.5-0.3,2.8-0.8,4.1c-0.5,1.3-1.3,2.4-2.3,3.5c-1,1-2.2,1.8-3.5,2.3c-1.3,0.5-2.7,0.8-4.1,0.8c-1.4,0-2.8-0.3-4.1-0.8
	c-1.3-0.5-2.5-1.3-3.5-2.3c-1-1-1.8-2.2-2.3-3.5c-0.5-1.3-0.8-2.7-0.8-4.1c0-1.5,0.3-2.8,0.8-4.1c0.5-1.3,1.3-2.5,2.3-3.5
	c1-1,2.2-1.8,3.5-2.3c1.3-0.5,2.7-0.8,4.1-0.8c1.4,0,2.8,0.3,4.1,0.8c1.3,0.5,2.5,1.3,3.5,2.3c1,1,1.8,2.2,2.3,3.5
	C108.8,295.4,109.1,296.8,109.1,298.3z M98.4,306.7c1.1,0,2.1-0.2,3.1-0.6c1-0.4,1.9-1,2.7-1.9c0.8-0.8,1.4-1.7,1.8-2.7
	c0.4-1,0.6-2.1,0.6-3.2c0-1.1-0.2-2.2-0.6-3.3c-0.4-1-1-1.9-1.8-2.7c-0.8-0.8-1.7-1.4-2.7-1.8c-1-0.4-2-0.6-3.1-0.6
	c-1.1,0-2.2,0.2-3.2,0.6c-1,0.4-1.9,1-2.6,1.8c-0.8,0.8-1.4,1.7-1.8,2.7c-0.4,1-0.6,2.1-0.6,3.3c0,1.1,0.2,2.2,0.6,3.2
	c0.4,1,1,1.9,1.8,2.7c0.8,0.8,1.7,1.4,2.7,1.9C96.3,306.5,97.3,306.7,98.4,306.7z M63.3,308.4V288h2.4v7.9h10.6V288h2.4v20.4h-2.4
	v-10.3H65.7v10.3H63.3z"/>
<path class="st1" d="M419.4,342.9v-14.6h6.8v1.6h-5.3v4.2h5.3v1.6h-5.3v5.6h5.3v1.6H419.4z M405.8,342.9v-14.6h1.5v13h4.9v1.7H405.8
	z M395.8,342.9v-14.6h1.5v14.6H395.8z M377.3,342.9v-14.6h1.5v5.6h6.9v-5.6h1.6v14.6h-1.6v-7.4h-6.9v7.4H377.3z M369.4,331.7
	c-0.6-0.8-1.3-1.3-2-1.7c-0.7-0.4-1.5-0.5-2.3-0.5c-0.7,0-1.4,0.2-2,0.5c-0.6,0.3-1.2,0.8-1.7,1.3c-0.5,0.6-0.9,1.2-1.1,1.9
	c-0.2,0.7-0.4,1.5-0.4,2.4c0,0.7,0.1,1.3,0.2,1.9c0.1,0.6,0.4,1.1,0.7,1.6c0.5,0.8,1.2,1.5,1.9,1.9c0.8,0.5,1.6,0.7,2.5,0.7
	c0.8,0,1.6-0.2,2.3-0.6c0.7-0.4,1.4-1,1.9-1.7v2.3c-0.6,0.5-1.3,0.9-2.1,1.2c-0.7,0.3-1.5,0.4-2.3,0.4c-0.7,0-1.3-0.1-2-0.3
	c-0.6-0.2-1.3-0.6-1.8-1c-0.9-0.7-1.7-1.6-2.2-2.7c-0.5-1.1-0.7-2.3-0.7-3.6c0-1.1,0.2-2.2,0.5-3.1c0.3-0.9,0.8-1.8,1.5-2.5
	c0.7-0.7,1.4-1.3,2.2-1.6c0.8-0.4,1.7-0.5,2.6-0.5c0.8,0,1.5,0.1,2.2,0.4c0.7,0.3,1.4,0.7,2.1,1.2V331.7z M335.9,337.5h4.1v1.6h-4.1
	V337.5z M310.7,342.9v-14.6h6.8v1.6h-5.3v4.2h5.3v1.6h-5.3v5.6h5.3v1.6H310.7z M298.4,342.9v-13h-3.7v-1.7h8.9v1.7H300v13H298.4z
	 M282.6,329.7v4.9h1.2c1.2,0,2-0.2,2.4-0.5c0.4-0.3,0.6-1,0.6-1.8c0-0.9-0.2-1.6-0.6-2c-0.4-0.4-1.2-0.6-2.4-0.6H282.6z
	 M281.1,342.9v-14.6h3c0.9,0,1.5,0.1,1.9,0.2c0.4,0.1,0.8,0.3,1.1,0.6c0.4,0.3,0.7,0.8,0.9,1.4c0.2,0.6,0.3,1.2,0.3,1.9
	c0,1.2-0.3,2.1-0.9,2.7c-0.6,0.6-1.5,0.9-2.6,0.9h-0.3l4.9,7h-2l-4.7-7h-0.2v7H281.1z M273.3,335.6c0,1-0.2,2-0.5,3
	c-0.3,0.9-0.8,1.8-1.5,2.5c-0.7,0.7-1.4,1.3-2.3,1.7c-0.9,0.4-1.7,0.6-2.7,0.6c-0.9,0-1.8-0.2-2.6-0.6c-0.8-0.4-1.6-0.9-2.3-1.7
	c-0.7-0.7-1.2-1.6-1.5-2.5c-0.3-0.9-0.5-1.9-0.5-2.9c0-1,0.2-2,0.5-3c0.3-0.9,0.8-1.8,1.5-2.5c0.6-0.7,1.4-1.3,2.3-1.6
	c0.8-0.4,1.7-0.6,2.6-0.6c0.9,0,1.8,0.2,2.7,0.6c0.9,0.4,1.6,0.9,2.3,1.6c0.7,0.7,1.2,1.5,1.5,2.5
	C273.1,333.5,273.3,334.5,273.3,335.6z M266.4,341.6c0.7,0,1.4-0.1,2-0.5c0.6-0.3,1.2-0.7,1.7-1.3c0.5-0.6,0.9-1.2,1.2-1.9
	c0.3-0.7,0.4-1.5,0.4-2.3c0-0.8-0.1-1.6-0.4-2.3c-0.3-0.7-0.7-1.4-1.2-2c-0.5-0.6-1.1-1-1.7-1.3c-0.6-0.3-1.3-0.5-2-0.5
	c-0.7,0-1.4,0.2-2,0.5c-0.6,0.3-1.2,0.7-1.7,1.3c-0.5,0.6-0.9,1.2-1.2,2c-0.3,0.7-0.4,1.5-0.4,2.3c0,0.8,0.1,1.6,0.4,2.3
	c0.3,0.7,0.7,1.4,1.2,2c0.5,0.6,1.1,1,1.7,1.3C265,341.5,265.6,341.6,266.4,341.6z M240.7,342.9v-15.2l9.5,11.7v-11.1h1.5v15.2
	l-9.5-11.6v11H240.7z M222.1,335.6c0,1-0.2,2-0.5,3c-0.3,0.9-0.8,1.8-1.5,2.5c-0.7,0.7-1.4,1.3-2.3,1.7c-0.9,0.4-1.7,0.6-2.7,0.6
	c-0.9,0-1.8-0.2-2.6-0.6c-0.8-0.4-1.6-0.9-2.3-1.7c-0.7-0.7-1.2-1.6-1.5-2.5c-0.3-0.9-0.5-1.9-0.5-2.9c0-1,0.2-2,0.5-3
	c0.3-0.9,0.8-1.8,1.5-2.5c0.7-0.7,1.4-1.3,2.3-1.6c0.8-0.4,1.7-0.6,2.6-0.6c0.9,0,1.8,0.2,2.7,0.6c0.9,0.4,1.6,0.9,2.3,1.6
	c0.7,0.7,1.2,1.5,1.5,2.5C221.9,333.5,222.1,334.5,222.1,335.6z M215.2,341.6c0.7,0,1.4-0.1,2-0.5c0.6-0.3,1.2-0.7,1.7-1.3
	c0.5-0.6,0.9-1.2,1.2-1.9c0.3-0.7,0.4-1.5,0.4-2.3c0-0.8-0.1-1.6-0.4-2.3c-0.3-0.7-0.7-1.4-1.2-2c-0.5-0.6-1.1-1-1.7-1.3
	c-0.6-0.3-1.3-0.5-2-0.5c-0.7,0-1.4,0.2-2,0.5c-0.6,0.3-1.2,0.7-1.7,1.3c-0.5,0.6-0.9,1.2-1.2,2c-0.3,0.7-0.4,1.5-0.4,2.3
	c0,0.8,0.1,1.6,0.4,2.3c0.3,0.7,0.7,1.4,1.2,2c0.5,0.6,1.1,1,1.7,1.3C213.8,341.5,214.5,341.6,215.2,341.6z M200.9,331.7
	c-0.6-0.8-1.3-1.3-2-1.7c-0.7-0.4-1.5-0.5-2.3-0.5c-0.7,0-1.4,0.2-2,0.5c-0.6,0.3-1.2,0.8-1.7,1.3c-0.5,0.6-0.9,1.2-1.1,1.9
	c-0.2,0.7-0.4,1.5-0.4,2.4c0,0.7,0.1,1.3,0.2,1.9c0.1,0.6,0.4,1.1,0.7,1.6c0.5,0.8,1.2,1.5,1.9,1.9c0.8,0.5,1.6,0.7,2.5,0.7
	c0.8,0,1.6-0.2,2.3-0.6c0.7-0.4,1.4-1,1.9-1.7v2.3c-0.6,0.5-1.3,0.9-2.1,1.2c-0.7,0.3-1.5,0.4-2.3,0.4c-0.7,0-1.3-0.1-2-0.3
	c-0.6-0.2-1.3-0.6-1.8-1c-0.9-0.7-1.7-1.6-2.2-2.7c-0.5-1.1-0.7-2.3-0.7-3.6c0-1.1,0.2-2.2,0.5-3.1c0.3-0.9,0.8-1.8,1.5-2.5
	c0.7-0.7,1.4-1.3,2.2-1.6c0.8-0.4,1.7-0.5,2.6-0.5c0.8,0,1.5,0.1,2.2,0.4c0.7,0.3,1.4,0.7,2.1,1.2V331.7z M180.4,334.7
	c0.8,0.4,1.5,0.9,1.9,1.6c0.4,0.7,0.6,1.5,0.6,2.4c0,1.3-0.4,2.4-1.1,3.3c-0.8,0.8-1.8,1.2-3,1.2c-1,0-1.9-0.3-2.6-0.9
	c-0.7-0.6-1.2-1.4-1.4-2.5l1.4-0.8c0.2,0.9,0.5,1.6,0.9,2c0.4,0.5,1,0.7,1.6,0.7c0.8,0,1.4-0.3,1.9-0.8c0.5-0.5,0.7-1.2,0.7-2
	c0-0.7-0.2-1.2-0.5-1.7c-0.3-0.5-0.8-0.9-1.5-1.2l-1.6-0.8c-0.9-0.4-1.5-0.9-1.9-1.6c-0.4-0.6-0.6-1.4-0.6-2.3c0-1,0.3-1.9,1-2.6
	c0.7-0.7,1.6-1,2.6-1c0.8,0,1.5,0.2,2,0.6c0.6,0.4,1,0.9,1.3,1.7L181,331c-0.3-0.6-0.6-1-1-1.3c-0.4-0.3-0.8-0.4-1.2-0.4
	c-0.6,0-1.1,0.2-1.4,0.6c-0.4,0.4-0.6,0.9-0.6,1.5c0,0.5,0.1,1,0.4,1.3c0.3,0.4,0.7,0.7,1.3,1L180.4,334.7z M165.7,342.9v-14.6h1.5
	v14.6H165.7z M147.2,328.2h1.6v9.1c0,1.5,0.3,2.6,0.8,3.3c0.6,0.7,1.4,1,2.6,1c1.2,0,2.1-0.3,2.6-1c0.6-0.7,0.8-1.8,0.8-3.3v-9.1
	h1.6v9.1c0,2-0.4,3.5-1.3,4.4c-0.8,1-2.1,1.5-3.8,1.5c-1.7,0-2.9-0.5-3.8-1.5c-0.8-1-1.2-2.5-1.2-4.4V328.2z M139.6,344.3h-1.9
	l-1.7-2.1c-0.5,0.3-1.1,0.6-1.7,0.8c-0.6,0.2-1.3,0.2-2,0.2c-0.7,0-1.4-0.1-2.1-0.4c-0.7-0.2-1.3-0.6-1.8-1.1
	c-0.9-0.8-1.6-1.7-2.1-2.7c-0.5-1.1-0.7-2.2-0.7-3.5c0-1,0.2-2,0.5-2.9c0.3-0.9,0.8-1.8,1.5-2.5c0.7-0.7,1.4-1.3,2.2-1.7
	c0.8-0.4,1.7-0.6,2.6-0.6c0.9,0,1.8,0.2,2.6,0.5c0.8,0.3,1.5,0.8,2.2,1.5c0.7,0.7,1.2,1.6,1.6,2.5c0.4,1,0.6,2,0.6,3.1
	c0,1.2-0.2,2.2-0.6,3.2c-0.4,1-1,1.8-1.7,2.5L139.6,344.3z M134.1,337.6l1.9,2.3c0.6-0.5,1-1.1,1.3-1.9c0.3-0.8,0.4-1.6,0.4-2.5
	c0-0.6-0.1-1.2-0.2-1.7c-0.1-0.5-0.3-1-0.5-1.5c-0.5-0.9-1.1-1.6-1.9-2.1c-0.8-0.5-1.7-0.8-2.6-0.8c-0.7,0-1.4,0.2-2,0.5
	c-0.6,0.3-1.2,0.7-1.7,1.3c-0.5,0.6-0.9,1.2-1.1,1.9c-0.3,0.7-0.4,1.5-0.4,2.3c0,1,0.2,2,0.6,2.8c0.4,0.8,0.9,1.5,1.7,2.1
	c0.4,0.3,0.9,0.6,1.4,0.8c0.5,0.2,1,0.3,1.6,0.3c0.5,0,0.9-0.1,1.3-0.2c0.4-0.1,0.8-0.3,1.1-0.5l-2.6-3.2H134.1z"/>
<path class="st2" d="M227.7,14.9c-2,5.7-5.2,8.1-8.9,11.6c-2.5,2.4-19.8,33.3-21.8,31.4c-1.1-1.1,17.9,20.2,27.3,28.5
	c17.8,15.8,11.8,8.1,2.4,25.7c-1.2,2.2-8.6,12.6-10.4,18.8c-0.3,0.9,0.6,1.5,1.3,1.8c0.2,0.1,0,0.7,0.2,0.6c2.4-0.6,4,4,5.2,3.3
	c1-0.7,1.3-1.8,2.2-0.2c1.1,2,4.2,1,4.3,1.1c2.6,2.9,7-0.3,11.7-6.1c4.7-5.8,8.6-14.8,13.6-21.6c5.4-7.4,7.5-13.6,6.8-16.2
	c-3.3-12.2-9.1-12.9-36.2-36.9c-0.2-0.2,4.3-6.5,9.4-11.9c2.5-2.6,6.6-8.9,8.5-11.8c2.9-4.5,10-11,9.9-16c-0.1-4.2-4.7-6.5-9-4.7
	c-0.9,0.4-3.3-0.2-4-0.2C236.2,10.8,230.9,5.9,227.7,14.9z"/>
<path class="st3" d="M227.7,14.9c-2,5.7-5.2,8.1-8.9,11.6c-2.5,2.4-19.8,33.3-21.8,31.4c-1.1-1.1,17.9,20.2,27.3,28.5
	c17.8,15.8,11.8,8.1,2.4,25.7c-1.2,2.2-8.6,12.6-10.4,18.8c-0.3,0.9,0.6,1.5,1.3,1.8c0.2,0.1,0,0.7,0.2,0.6c2.4-0.6,4,4,5.2,3.3
	c1-0.7,1.3-1.8,2.2-0.2c1.1,2,4.2,1,4.3,1.1c2.6,2.9,7-0.3,11.7-6.1c4.7-5.8,8.6-14.8,13.6-21.6c5.4-7.4,7.5-13.6,6.8-16.2
	c-3.3-12.2-9.1-12.9-36.2-36.9c-0.2-0.2,4.3-6.5,9.4-11.9c2.5-2.6,6.6-8.9,8.5-11.8c2.9-4.5,10-11,9.9-16c-0.1-4.2-4.7-6.5-9-4.7
	c-0.9,0.4-3.3-0.2-4-0.2C236.2,10.8,230.9,5.9,227.7,14.9z"/>
<path class="st4" d="M273.1,51.4c8.8,0.9,16.5,0.8,24.5-0.2c8-1,16.3-3,23.3-4.4c7-1.5,12.7-2.5,15.8-3c3.1-0.5,3.5-0.5,5.4-0.6
	c1.9-0.1,5.1-0.4,9.8,0c4.7,0.4,10.9,1.4,12.2,1.9c1.4,0.5-2.1,0.4-6.1,0.9c-4,0.4-8.6,1.3-15.8,3.9c-7.2,2.6-17,6.8-24.5,9.2
	c-7.5,2.4-12.6,2.9-20.5,3.2c-7.9,0.3-18.5,0.3-27.8-2.8c-9.3-3-17.3-9.1-21.3-11.7c-4-2.6-3.9-1.7,1.1-0.4
	C254.4,48.7,264.3,50.5,273.1,51.4"/>
<path class="st5" d="M256.6,60.2c2.1,2.2,14,12.9,27,17.4c13,4.5,27.2,2.8,41.7-1.6c14.5-4.4,29.3-11.6,41-14.3
	c11.7-2.8,20.4-1.2,27.5,0.5c7,1.7,12.4,3.4,15.9,5.5c3.5,2.1,5.2,4.5,3.6,2c-1.6-2.5-6.5-10-15.2-14.4c-8.7-4.4-21.1-5.6-32.5-4.3
	c-11.4,1.4-21.7,5.3-29.9,8.4c-8.2,3.1-14.4,5.2-25.1,6.9c-10.7,1.7-25.8,3-37.2,0.5C262.1,64.2,254.5,58,256.6,60.2"/>
<path class="st4" d="M275.4,79.7c2.3,0.9,9.7,4.3,18.2,6.3c8.5,2,18.1,2.5,31.4-1.4c13.3-3.9,30.2-12.1,46.4-14
	c16.2-1.9,31.8,2.5,41.5,7.6c9.7,5,13.5,10.6,15.7,14c2.3,3.4,3.1,4.5,1.7,3.6c-1.3-0.9-4.8-3.8-7.6-5.6c-2.8-1.9-5.1-2.7-7.3-3.4
	c-2.2-0.8-4.4-1.5-12.1-2.9c-7.7-1.4-20.9-3.6-33.7-1.1c-12.8,2.5-25.3,9.7-38.3,13.5c-13,3.9-26.5,4.4-35.4,1.5
	c-8.9-2.9-13.2-9.3-16.7-13.3C275.8,80.4,273.1,78.8,275.4,79.7"/>
<path class="st6" d="M189.2,263.6c-1.1-1.5-6-12.8,11.5-4.3c2.3,1.1,14.9,8,16.1,1.2c0.2-2.1-1.6-3.8-4.1-3.8"/>
<path class="st6" d="M212.4,261.7c-8.9,1.8-13.3-27.1,26.5-1.8c12.1,6.9,31.5,0.4,15-11.1"/>
<path class="st6" d="M212.4,261.7c-9.3,1.7-13.8-28.1,27.9-4c17.4,9.9,26.6-0.9,13.7-8.9"/>
<path class="st6" d="M204.9,247.4c1.5-2.6,5.5-5.3,16-3.4c10.5,1.9,23.8,13.5,34.1,15.8"/>
<path class="st6" d="M355.5,263.9c1.1-1.5,6.1-12.8-11.6-4.3c-2.4,1.1-15,8-16.2,1.2c-0.2-2.1,1.7-3.8,4.1-3.8"/>
<path class="st6" d="M332.1,262c9,1.8,13.4-27.1-26.7-1.8c-12.2,6.9-31.7,0.4-15.1-11.1"/>
<path class="st6" d="M332.1,262c9.4,1.7,13.8-28.1-28-4c-17.5,9.9-26.8-0.9-13.7-8.9"/>
<path class="st6" d="M339.7,247.7c-1.5-2.6-5.6-5.3-16.1-3.4c-10.5,1.9-24,13.5-34.3,15.8"/>
<line class="st6" x1="7.7" y1="263.5" x2="177.8" y2="263.5"/>
<line class="st6" x1="368.4" y1="262.8" x2="543" y2="262.8"/>
</svg>
