<svg xmlns="http://www.w3.org/2000/svg" viewBox="0 0 149.017 88.479">
  <defs>
    <style>
      .cls-1 {
        fill: rgba(255,255,255,0.31);
      }
    </style>
  </defs>
  <path id="sea-waves" class="cls-1" d="M0,7c0,7.572,8.531,13.97,18.627,13.97a21.518,21.518,0,0,0,13.97-4.93,21.518,21.518,0,0,0,13.97,4.93,21.518,21.518,0,0,0,13.97-4.93,21.518,21.518,0,0,0,13.97,4.93,21.518,21.518,0,0,0,13.97-4.93,21.518,21.518,0,0,0,13.97,4.93,21.518,21.518,0,0,0,13.97-4.93,21.518,21.518,0,0,0,13.97,4.93c10.1,0,18.627-6.4,18.627-13.97H139.7c0,1.425-3.521,4.657-9.314,4.657-5.7,0-9.314-3.274-9.314-4.657h-9.314c0,1.425-3.521,4.657-9.314,4.657-5.7,0-9.314-3.274-9.314-4.657H83.822c0,1.425-3.521,4.657-9.314,4.657-5.7,0-9.314-3.274-9.314-4.657H55.882c0,1.425-3.516,4.657-9.314,4.657-5.7,0-9.314-3.274-9.314-4.657H27.941c0,1.425-3.516,4.657-9.314,4.657-5.7,0-9.314-3.274-9.314-4.657ZM0,44.254c0,7.572,8.531,13.97,18.627,13.97A21.518,21.518,0,0,0,32.6,53.3a21.518,21.518,0,0,0,13.97,4.93,21.518,21.518,0,0,0,13.97-4.93,22.26,22.26,0,0,0,27.941,0,22.26,22.26,0,0,0,27.941,0,21.518,21.518,0,0,0,13.97,4.93c10.1,0,18.627-6.4,18.627-13.97H139.7c0,1.425-3.521,4.657-9.314,4.657-5.7,0-9.314-3.274-9.314-4.657h-9.314c0,1.425-3.521,4.657-9.314,4.657-5.7,0-9.314-3.274-9.314-4.657H83.822c0,1.425-3.521,4.657-9.314,4.657-5.7,0-9.314-3.274-9.314-4.657H55.882c0,1.425-3.516,4.657-9.314,4.657-5.7,0-9.314-3.274-9.314-4.657H27.941c0,1.425-3.516,4.657-9.314,4.657-5.7,0-9.314-3.274-9.314-4.657ZM0,81.509c0,7.572,8.531,13.97,18.627,13.97a21.518,21.518,0,0,0,13.97-4.93,21.518,21.518,0,0,0,13.97,4.93,21.518,21.518,0,0,0,13.97-4.93,22.26,22.26,0,0,0,27.941,0,22.26,22.26,0,0,0,27.941,0,21.518,21.518,0,0,0,13.97,4.93c10.1,0,18.627-6.4,18.627-13.97H139.7c0,1.425-3.521,4.657-9.314,4.657-5.7,0-9.314-3.274-9.314-4.657h-9.314c0,1.425-3.521,4.657-9.314,4.657-5.7,0-9.314-3.274-9.314-4.657H83.822c0,1.425-3.521,4.657-9.314,4.657-5.7,0-9.314-3.274-9.314-4.657H55.882c0,1.425-3.516,4.657-9.314,4.657-5.7,0-9.314-3.274-9.314-4.657H27.941c0,1.425-3.516,4.657-9.314,4.657-5.7,0-9.314-3.274-9.314-4.657Z" transform="translate(0 -7)"/>
</svg>
